<svg xmlns="http://www.w3.org/2000/svg" viewBox="0 0 24 24" fill="currentColor">
  <path d="M14 3C14 3 16 4 17 6C17.5 7 18 8 18 9V12C18 15 16.5 17.5 14 19C13.5 19.3 13 19.5 12 19.5C11 19.5 10.5 19.3 10 19C7.5 17.5 6 15 6 12V9C6 8 6.5 7 7 6C8 4 10 3 10 3" stroke="currentColor" stroke-width="1.5" stroke-linecap="round" stroke-linejoin="round" fill="currentColor"/>
  <path d="M8 9C8 9 8.5 10 9 10.5C9.5 11 10 11 10.5 11C11 11 11.5 11 12 10.5C12.5 10 13 9.5 13.5 9" stroke="currentColor" stroke-width="1.5" stroke-linecap="round" fill="none"/>
  <path d="M8.5 14C8.5 14 9 15 9.5 15.5C10 16 10.5 16 11 16C11.5 16 12 16 12.5 15.5C13 15 13.5 14.5 14 14" stroke="currentColor" stroke-width="1.5" stroke-linecap="round" fill="none"/>
  <ellipse cx="16" cy="11" rx="0.8" ry="1.2" fill="white" opacity="0.4"/>
  <ellipse cx="8" cy="11" rx="0.8" ry="1.2" fill="white" opacity="0.4"/>
</svg>
