<svg xmlns="http://www.w3.org/2000/svg" viewBox="0 0 24 24" fill="currentColor">
  <path d="M19 11C19 11 18 9 16 9C15 9 14 9.5 13.5 10C13 10.5 12.5 11 12 11C11.5 11 11 10.5 10.5 10C10 9.5 9 9 8 9C6 9 5 11 5 11C5 11 4 13.5 6 17C7 18.5 8.5 20 11 21C11.5 21.2 12 21.2 13 21C15.5 20 17 18.5 18 17C20 13.5 19 11 19 11Z" stroke="currentColor" stroke-width="1.5" stroke-linecap="round" stroke-linejoin="round" fill="currentColor"/>
  <path d="M12 4V8" stroke="currentColor" stroke-width="1.5" stroke-linecap="round"/>
  <path d="M8.5 5.5L10.5 7.5" stroke="currentColor" stroke-width="1.5" stroke-linecap="round"/>
  <path d="M15.5 5.5L13.5 7.5" stroke="currentColor" stroke-width="1.5" stroke-linecap="round"/>
  <ellipse cx="9" cy="14" rx="1" ry="1.5" fill="white" opacity="0.4"/>
  <ellipse cx="15" cy="14" rx="1" ry="1.5" fill="white" opacity="0.4"/>
</svg>
